# AST/ASF file generated using VICON BodyLanguage
# -----------------------------------------------
:version 1.10
:name VICON
:units
  mass 1.0
  length 0.45
  angle deg
:documentation
   .ast/.asf automatically generated from VICON data using
   VICON BodyBuilder and BodyLanguage model FoxedUp or BRILLIANT.MOD
:root
   order TX TY TZ RX RY RZ
   axis XYZ
   position 0 0 0  
   orientation 0 0 0 
:bonedata
  begin
     id 1 
     name lhipjoint
     direction 0.653368 -0.678499 0.335782 
     length 2.51848 
     axis 0 0 0  XYZ
  end
  begin
     id 2 
     name lfemur
     direction 0.34202 -0.939693 0  
     length 6.57749  
     axis 0 0 20  XYZ
    dof rx ry rz
    limits (-160.0 20.0)
           (-70.0 70.0)
           (-60.0 70.0)
  end
  begin
     id 3 
     name ltibia
     direction 0.34202 -0.939693 0   
     length 7.94618   
     axis 0 0 20   XYZ
    dof rx
    limits (-10.0 170.0)
  end
  begin
     id 4 
     name lfoot
     direction 0.0811271 -0.222895 0.971461   
     length 2.31339   
     axis -90 7.62852e-016 20   XYZ
    dof rx rz
    limits (-45.0 90.0)
           (-70.0 20.0)
  end
  begin
     id 5 
     name ltoes
     direction 1.53568e-011 -4.21885e-011 1   
     length 1.15935   
     axis -90 7.62852e-016 20   XYZ
    dof rx
    limits (-90.0 20.0)
  end
  begin
     id 6 
     name rhipjoint
     direction -0.640058 -0.688614 0.340788   
     length 2.48149  
     axis 0 0 0  XYZ 
  end
  begin
     id 7 
     name rfemur
     direction -0.34202 -0.939693 0   
     length 6.57875   
     axis 0 0 -20   XYZ
    dof rx ry rz
    limits (-160.0 20.0)
           (-70.0 70.0)
           (-70.0 60.0)
  end
  begin
     id 8 
     name rtibia
     direction -0.34202 -0.939693 0   
     length 7.977   
     axis 0 0 -20   XYZ
    dof rx
    limits (-10.0 170.0)
 end
 begin
     id 9 
     name rfoot
     direction -0.0979793 -0.269196 0.958089   
     length 2.19857  
     axis -90 -7.62852e-016 -20   XYZ
    dof rx rz
    limits (-45.0 90.0)
           (-20.0 70.0)
  end
  begin
     id 10 
     name rtoes
     direction -1.53556e-011 -4.21868e-011 1   
     length 1.09838   
     axis -90 -7.62852e-016 -20   XYZ
    dof rx
    limits (-90.0 20.0)
  end
  begin
     id 11 
     name lowerback
     direction 0.0149039 0.998517 -0.0523597   
     length 2.10809   
     axis 0 0 0   XYZ
    dof rx ry rz
    limits (-20.0 45.0)
           (-30.0 30.0)
           (-30.0 30.0)
  end
  begin
     id 12 
     name upperback
     direction -0.00882659 0.999418 -0.0329624   
     length 2.1102   
     axis 0 0 0   XYZ
    dof rx ry rz
    limits (-20.0 45.0)
           (-30.0 30.0)
           (-30.0 30.0)
  end
  begin
     id 13 
     name thorax
     direction -0.0165585 0.999826 -0.0085833   
     length 2.11039   
     axis 0 0 0   XYZ
    dof rx ry rz
    limits (-20.0 45.0)
           (-30.0 30.0)
           (-30.0 30.0)
  end
  begin
     id 14 
     name lowerneck
     direction -0.0130877 0.999911 0.00260353   
     length 1.73253   
     axis 0 0 0   XYZ
    dof rx ry rz
    limits (-20.0 45.0)
           (-30.0 30.0)
           (-30.0 30.0)
  end
  begin
     id 15 
     name upperneck
     direction -0.0348454 0.928205 -0.370435   
     length 1.66692   
     axis 0 0 0   XYZ
    dof rx ry rz
    limits (-20.0 45.0)
           (-30.0 30.0)
           (-30.0 30.0)
  end
  begin
     id 16
     name head
     direction -0.00807754 0.992494 -0.122026  
     length 1.72765  
     axis 0 0 0   XYZ
    dof rx ry rz
    limits (-20.0 45.0)
           (-30.0 30.0)
           (-30.0 30.0)
  end
  begin
     id 17 
     name lclavicle
     direction 0.987582 0.144023 0.0627671  
     length 3.49235  
     axis 0 0 0   XYZ
    dof ry rz
    limits (-20.0 10.0)
           (0.0 20.0)
  end
  begin
     id 18 
     name lhumerus
     direction 1 -4.48958e-011 -1.45183e-018   
     length 5.41917   
     axis 180 -30 -90   XYZ
    dof rx ry rz
    limits (-60.0 90.0)
           (-90.0 90.0)
           (-90.0 90.0)
  end
  begin
     id 19
     name lradius
     direction 1 -4.48999e-011 5.75106e-027   
     length 2.44373   
     axis 180 -30 -90   XYZ
    dof rx
    limits (-10.0 170.0)
  end
  begin
     id 20
     name lwrist
     direction 1 -4.48987e-011 1.53461e-026   
     length 1.22186   
     axis -1.09697e-014 90 90   XYZ
    dof ry
    limits (-180.0 0.0)
 end
  begin
     id 21 
     name lhand
     direction 1 -4.48881e-011 3.06923e-026   
     length 0.727502   
     axis -1.95843e-014 90 90   XYZ
    dof rx rz
    limits (-90.0 90.0)
           (-45.0 45.0)
  end
  begin
     id 22 
     name lfingers
     direction 1 -4.48907e-011 6.13845e-026   
     length 0.586531   
     axis -3.91686e-014 90 90   XYZ
    dof rx
    limits (0.0 90.0)
  end
  begin
     id 23
     name lthumb
     direction 0.707107 -6.3487e-011 0.707107   
     length 0.842145   
     axis -90 45 2.85299e-015   XYZ
    dof rx rz
    limits (-45.0 45.0)
           (-45.0 45.0)
  end
  begin
     id 24 
     name rclavicle
     direction -0.980998 0.169556 0.0943023   
     length 3.29272  
     axis 0 0 0   XYZ 
    dof ry rz
    limits (-10.0 20.0)
           (-20.0 0.0)
  end
  begin
     id 25 
     name rhumerus
     direction -1 -1.83355e-005 2.45537e-005  
     length 5.58976   
     axis 180 30 90   XYZ
    dof rx ry rz
    limits (-90.0 60.0)
           (-90.0 90.0)
           (-90.0 90.0)
  end
  begin
     id 26 
     name rradius
     direction -1 -4.48967e-011 5.97228e-027   
     length 2.4806   
     axis 180 30 90   XYZ
    dof rx
    limits (-10.0 170.0)
  end
  begin
     id 27 
     name rwrist
     direction -1 -4.48963e-011 1.53461e-026   
     length 1.2403   
     axis -1.09697e-014 -90 -90   XYZ
    dof ry
    limits (-180.0 0.0)
  end
  begin
     id 28
     name rhand
     direction -1 -4.48881e-011 3.06923e-026   
     length 0.816009   
     axis -1.95843e-014 -90 -90   XYZ
    dof rx rz
    limits (-90.0 90.0)
           (-45.0 45.0)
  end
  begin
     id 29
     name rfingers
     direction -1 -4.49018e-011 6.13845e-026   
     length 0.657887   
     axis -3.91686e-014 -90 -90   XYZ
    dof rx
    limits (0.0 90.0)
  end
  begin
     id 30
     name rthumb
     direction -0.707107 -6.34872e-011 0.707107   
     length 0.944599   
     axis -90 -45 -2.85299e-015   XYZ
    dof rx rz
    limits (-45.0 45.0)
           (-45.0 45.0)
  end
:hierarchy
  begin
    root lhipjoint rhipjoint lowerback
    lhipjoint lfemur
    lfemur ltibia
    ltibia lfoot
    lfoot ltoes
    rhipjoint rfemur
    rfemur rtibia
    rtibia rfoot
    rfoot rtoes
    lowerback upperback
    upperback thorax
    thorax lowerneck lclavicle rclavicle
    lowerneck upperneck
    upperneck head
    lclavicle lhumerus
    lhumerus lradius
    lradius lwrist
    lwrist lhand lthumb
    lhand lfingers
    rclavicle rhumerus
    rhumerus rradius
    rradius rwrist
    rwrist rhand rthumb
    rhand rfingers
  end

#!OML:ASF F:\VICON\USERDATA\INSTALL\rory3\rory3.ASF
:FULLY-SPECIFIED
:DEGREES
229
root 0.387969 16.2871 -4.69393 -161.259 -8.06821 177.68
lowerback -15.7021 -0.814702 -1.24278
upperback -3.46208 -1.32759 0.439258
thorax 5.15075 -0.85177 0.888074
lowerneck -11.3972 3.20689 -0.850427
upperneck 43.3958 -2.00416 0.821644
head 18.1665 -2.90896 -0.495531
rclavicle 1.92324e-014 7.95139e-015
rhumerus -42.8377 6.76988 -87.3029
rradius 29.5382
rwrist -19.9889
rhand -6.74845 13.5606
rfingers 7.12502
rthumb 19.1127 -15.5203
lclavicle 1.92324e-014 7.95139e-015
lhumerus -46.1499 1.85571 82.3095
lradius 62.2566
lwrist -2.34677
lhand -0.664309 17.3737
lfingers 7.12502
lthumb 24.9539 45.7643
rfemur -45.3115 4.63913 30.8479
rtibia 43.9264
rfoot -48.9474 -31.2425
rtoes 48.4966
lfemur -22.696 16.9486 -27.2758
ltibia 54.5674
lfoot 26.8842 19.7626
ltoes 30.1969
230
root 0.378497 16.2889 -4.69942 -161.202 -8.13797 177.509
lowerback -15.8385 -0.84249 -1.31326
upperback -3.42814 -1.34631 0.376464
thorax 5.26094 -0.861801 0.855041
lowerneck -11.5028 3.17797 -0.874975
upperneck 43.3788 -2.03946 0.879764
head 18.1865 -2.91046 -0.468833
rclavicle 4.05024e-015 4.77083e-015
rhumerus -42.7257 6.75229 -87.2812
rradius 29.5234
rwrist -20.0794
rhand -6.77043 13.4248
rfingers 7.12502
rthumb 19.0916 -15.6582
lclavicle 4.05024e-015 4.77083e-015
lhumerus -46.0123 1.66816 82.351
lradius 62.4039
lwrist -2.98577
lhand -0.444704 17.3081
lfingers 7.12502
lthumb 25.1644 45.6693
rfemur -45.371 4.26086 30.7375
rtibia 43.9516
rfoot -48.6435 -31.3536
rtoes 48.2899
lfemur -22.6137 16.789 -27.4715
ltibia 54.4469
lfoot 27.1868 19.6156
ltoes 29.7688
231
root 0.373712 16.2885 -4.70317 -161.066 -8.00038 177.506
lowerback -16.0103 -0.833206 -1.33004
upperback -3.49357 -1.34371 0.393035
thorax 5.28502 -0.866299 0.879833
lowerneck -11.4453 3.22845 -0.712583
upperneck 43.3543 -1.90091 0.647488
head 18.1494 -2.86034 -0.581458
rclavicle -1.90585e-014 1.19271e-014
rhumerus -42.7082 7.05297 -87.3921
rradius 29.3355
rwrist -20.3322
rhand -6.93497 13.6472
rfingers 7.12502
rthumb 18.9334 -15.4514
lclavicle -1.90585e-014 1.19271e-014
lhumerus -46.0977 1.66033 82.3538
lradius 62.5984
lwrist -3.68246
lhand -0.29979 16.9642
lfingers 7.12502
lthumb 25.3032 45.3059
rfemur -45.5102 4.26485 30.7175
rtibia 43.9452
rfoot -48.4378 -31.3041
rtoes 48.506
lfemur -22.7356 16.8237 -27.5897
ltibia 54.3611
lfoot 27.3118 19.4068
ltoes 28.8901
232
root 0.371774 16.2882 -4.71263 -161.087 -7.86017 177.769
lowerback -16.2283 -0.777775 -1.14054
upperback -3.44089 -1.30535 0.487369
thorax 5.4567 -0.846324 0.875566
lowerneck -11.5267 3.24189 -0.633954
upperneck 43.3222 -1.81851 0.527675
head 18.1486 -2.82197 -0.635395
rclavicle -1.31695e-015 8.74653e-015
rhumerus -42.5375 7.15798 -87.3839
rradius 29.2207
rwrist -20.4086
rhand -6.86377 13.5987
rfingers 7.12502
rthumb 19.0018 -15.4931
lclavicle -1.31695e-015 8.74653e-015
lhumerus -46.0459 1.56804 82.4252
lradius 62.6883
lwrist -4.2716
lhand -0.0264329 17.2434
lfingers 7.12502
lthumb 25.5651 45.5478
rfemur -45.4528 4.50555 30.9383
rtibia 43.8996
rfoot -48.2551 -31.3398
rtoes 48.3699
lfemur -22.773 17.0453 -27.3719
ltibia 54.3226
lfoot 27.803 18.58
ltoes 26.7087
233
root 0.371124 16.2907 -4.72709 -161.438 -8.16006 177.891
lowerback -16.0713 -0.87305 -1.04428
upperback -3.34514 -1.43504 0.54372
thorax 5.47642 -0.901935 0.856149
lowerneck -11.5933 3.23106 -0.596109
upperneck 43.3652 -1.87348 0.560266
head 18.1949 -2.83575 -0.640173
rclavicle -4.22417e-015 5.56597e-015
rhumerus -42.5292 7.09469 -87.354
rradius 29.4271
rwrist -20.3762
rhand -6.81247 13.155
rfingers 7.12502
rthumb 19.0512 -15.932
lclavicle -4.22417e-015 5.56597e-015
lhumerus -45.9951 1.44648 82.4664
lradius 62.5714
lwrist -4.82329
lhand 0.154617 17.3425
lfingers 7.12502
lthumb 25.7385 45.6218
rfemur -44.9823 4.3878 31.1248
rtibia 43.8741
rfoot -48.7531 -31.1925
rtoes 47.9729
lfemur -22.2878 16.9174 -26.9875
ltibia 54.246
lfoot 28.0237 17.8928
ltoes 25.4734
234
root 0.363302 16.2916 -4.73279 -161.261 -8.08613 177.821
lowerback -16.3593 -0.852756 -1.07655
upperback -3.34522 -1.40628 0.51622
thorax 5.6315 -0.891973 0.845607
lowerneck -11.7249 3.19364 -0.647095
upperneck 43.4433 -1.95123 0.593625
head 18.2808 -2.87267 -0.634668
rclavicle 1.9953e-014 3.18055e-015
rhumerus -42.4049 7.10057 -87.3476
rradius 29.5492
rwrist -20.4904
rhand -6.763 12.6076
rfingers 7.12502
rthumb 19.0987 -16.4746
lclavicle 1.9953e-014 3.18055e-015
lhumerus -45.8878 1.34604 82.5311
lradius 62.5475
lwrist -5.27074
lhand 0.296601 17.2962
lfingers 7.12502
lthumb 25.8744 45.5558
rfemur -45.1559 4.13769 31.086
rtibia 43.9047
rfoot -48.6248 -30.9357
rtoes 47.9456
lfemur -22.3957 16.9025 -27.1828
ltibia 54.1689
lfoot 27.9476 17.4955
ltoes 24.5476
235
root 0.356757 16.2915 -4.74293 -161.15 -8.12904 177.713
lowerback -16.6495 -0.901743 -1.18084
upperback -3.31098 -1.45389 0.526842
thorax 5.82872 -0.919088 0.899849
lowerneck -11.7641 3.18903 -0.683821
upperneck 43.4065 -1.90717 0.562372
head 18.2673 -2.85879 -0.632372
rclavicle -6.31141e-015 -2.38542e-015
rhumerus -42.2497 7.10776 -87.2776
rradius 29.6061
rwrist -20.612
rhand -6.65161 11.994
rfingers 7.12502
rthumb 19.2059 -17.0777
lclavicle -6.31141e-015 -2.38542e-015
lhumerus -45.8999 1.31888 82.6199
lradius 62.8046
lwrist -5.74484
lhand 0.66692 17.3543
lfingers 7.12502
lthumb 26.229 45.5617
rfemur -45.2836 3.8022 31.0623
rtibia 43.9765
rfoot -48.2661 -31.1673
rtoes 47.7308
lfemur -22.3919 16.785 -27.3326
ltibia 54.0707
lfoot 27.9881 17.404
ltoes 24.3038
